HIERARCHY
ROOT Hips
{
	OFFSET 0.000000 0.000000 0.000000
	CHANNELS 6 Xposition Yposition Zposition Zrotation Yrotation Xrotation 
	JOINT LHipJoint
	{
		OFFSET 0.000000 0.000000 0.000000
		CHANNELS 3 Zrotation Yrotation Xrotation
		JOINT LeftUpLeg
		{
			OFFSET 1.363060 -1.794630 0.839290
			CHANNELS 3 Zrotation Yrotation Xrotation
			JOINT LeftLeg
			{
				OFFSET 2.448110 -6.726130 0.000000
				CHANNELS 3 Zrotation Yrotation Xrotation
				JOINT LeftFoot
				{
					OFFSET 2.562200 -7.039590 0.000000
					CHANNELS 3 Zrotation Yrotation Xrotation
					JOINT LeftToeBase
					{
						OFFSET 0.157640 -0.433110 2.322550
						CHANNELS 3 Zrotation Yrotation Xrotation
						End Site
						{
							OFFSET 0.000000 0.000000 0.000000
						}
					}
				}
			}
		}
	}
	JOINT RHipJoint
	{
		OFFSET 0.000000 0.000000 0.000000
		CHANNELS 3 Zrotation Yrotation Xrotation
		JOINT RightUpLeg
		{
			OFFSET -1.305520 -1.794630 0.839290
			CHANNELS 3 Zrotation Yrotation Xrotation
			JOINT RightLeg
			{
				OFFSET -2.542530 -6.985550 0.000000
				CHANNELS 3 Zrotation Yrotation Xrotation
				JOINT RightFoot
				{
					OFFSET -2.568260 -7.056230 0.000000
					CHANNELS 3 Zrotation Yrotation Xrotation
					JOINT RightToeBase
					{
						OFFSET -0.164730 -0.452590 2.363150
						CHANNELS 3 Zrotation Yrotation Xrotation
						End Site
						{
							OFFSET 0.000000 0.000000 0.000000
						}
					}
				}
			}
		}
	}
	JOINT LowerBack
	{
		OFFSET 0.000000 0.000000 0.000000
		CHANNELS 3 Zrotation Yrotation Xrotation
		JOINT Spine
		{
			OFFSET 0.028270 2.035590 -0.193380
			CHANNELS 3 Zrotation Yrotation Xrotation
			JOINT Spine1
			{
				OFFSET 0.056720 2.048850 -0.042750
				CHANNELS 3 Zrotation Yrotation Xrotation
				JOINT Neck
				{
					OFFSET 0.000000 0.000000 0.000000
					CHANNELS 3 Zrotation Yrotation Xrotation
					JOINT Neck1
					{
						OFFSET -0.054170 1.746240 0.172020
						CHANNELS 3 Zrotation Yrotation Xrotation
						JOINT Head
						{
							OFFSET 0.104070 1.761360 -0.123970
							CHANNELS 3 Zrotation Yrotation Xrotation
							End Site
							{
								OFFSET 0.000000 0.000000 0.000000
							}
						}
					}
				}
				JOINT LeftShoulder
				{
					OFFSET 0.000000 0.000000 0.000000
					CHANNELS 3 Zrotation Yrotation Xrotation
					JOINT LeftArm
					{
						OFFSET 3.362410 1.200890 -0.311210
						CHANNELS 3 Zrotation Yrotation Xrotation
						JOINT LeftForeArm
						{
							OFFSET 4.983000 -0.000000 -0.000000
							CHANNELS 3 Zrotation Yrotation Xrotation
							JOINT LeftHand
							{
								OFFSET 3.483560 -0.000000 -0.000000
								CHANNELS 3 Zrotation Yrotation Xrotation
								JOINT LeftFingerBase
								{
									OFFSET 0.000000 0.000000 0.000000
									CHANNELS 3 Zrotation Yrotation Xrotation
									JOINT LeftHandIndex1
									{
										OFFSET 0.715260 -0.000000 -0.000000
										CHANNELS 3 Zrotation Yrotation Xrotation
										End Site
										{
											OFFSET 0.000000 0.000000 0.000000
										}
									}
								}
								JOINT LThumb
								{
									OFFSET 0.000000 0.000000 0.000000
									CHANNELS 3 Zrotation Yrotation Xrotation
									End Site
									{
										OFFSET 0.000000 0.000000 0.000000
									}
								}
							}
						}
					}
				}
				JOINT RightShoulder
				{
					OFFSET 0.000000 0.000000 0.000000
					CHANNELS 3 Zrotation Yrotation Xrotation
					JOINT RightArm
					{
						OFFSET -3.136600 1.374050 -0.404650
						CHANNELS 3 Zrotation Yrotation Xrotation
						JOINT RightForeArm
						{
							OFFSET -5.241900 -0.000000 -0.000000
							CHANNELS 3 Zrotation Yrotation Xrotation
							JOINT RightHand
							{
								OFFSET -3.444170 -0.000000 -0.000000
								CHANNELS 3 Zrotation Yrotation Xrotation
								JOINT RightFingerBase
								{
									OFFSET 0.000000 0.000000 0.000000
									CHANNELS 3 Zrotation Yrotation Xrotation
									JOINT RightHandIndex1
									{
										OFFSET -0.622530 -0.000000 -0.000000
										CHANNELS 3 Zrotation Yrotation Xrotation
										End Site
										{
											OFFSET 0.000000 0.000000 0.000000
										}
									}
								}
								JOINT RThumb
								{
									OFFSET 0.000000 0.000000 0.000000
									CHANNELS 3 Zrotation Yrotation Xrotation
									End Site
									{
										OFFSET 0.000000 0.000000 0.000000
									}
								}
							}
						}
					}
				}
			}
		}
	}
}
MOTION
Frames: 5
Frame Time: 0.008333
-3.844241 17.651450 38.940371 -178.373312 -22.328920 178.940373 -5.143732 0.363257 1.496427 -9.141551 -10.232476 -15.501048 1.961242 11.437711 34.122038 2.497549 -7.009904 4.574577 0.154100 -2.529800 -6.972200 4.043150 -1.219958 2.686956 14.305739 1.356027 -9.460140 -1.676226 -10.525844 32.005732 0.840914 -7.911252 -15.424633 -0.159000 -2.569300 7.082000 3.745529 1.950876 7.786869 0.278601 2.689821 -0.396673 -2.881604 1.432732 -1.263334 4.613673 15.655314 -8.545245 0.850222 19.954413 7.232905 -1.647100 9.576900 7.280700 -3.393616 -0.953189 0.483952 -78.222031 -7.177455 66.481243 112.878416 -58.487832 -80.411064 0.770264 0.227895 -21.174103 38.059888 24.464734 17.718900 -7.125000 0.000000 0.000000 9.233100 59.922200 3.379800 4.872843 0.712275 -0.204566 72.420611 -3.181101 56.373232 -129.521108 52.218362 -94.254467 0.128775 0.152962 5.143429 -30.898073 9.833306 -5.742900 7.125000 0.000000 0.000000 -2.858300 -18.788800 -1.787600 
-3.790031 17.655417 38.934268 -178.322663 -22.312597 178.996125 -5.150981 0.330938 1.465179 -8.859478 -10.156933 -15.644262 1.965377 11.449453 34.128407 2.510519 -7.020525 4.650018 0.170600 -2.660900 -7.336200 4.021701 -1.210062 2.654225 14.545793 1.510412 -9.416398 -1.652634 -10.493991 31.908330 0.713016 -7.440767 -15.493934 -0.303300 -3.540700 9.787900 3.211217 2.003885 7.112399 0.569471 2.646895 -0.140879 -1.754467 1.367381 -0.329580 3.977012 15.715795 -9.010653 0.510279 20.185225 7.048933 -1.661800 9.602000 7.274400 -3.330950 -0.946655 0.533556 -79.307910 -8.074625 66.129552 112.663040 -58.520643 -80.232390 0.764672 0.220166 -21.101028 37.606116 24.434905 17.431500 -7.125000 0.000000 0.000000 8.677000 59.766400 3.142000 4.946407 0.647141 -0.195290 71.791686 -2.456452 56.036344 -129.504244 52.266426 -94.250820 0.129678 0.162104 4.978273 -31.078559 9.682765 -5.688500 7.125000 0.000000 0.000000 -3.000900 -18.955100 -1.866000 
-3.736329 17.659892 38.929488 -178.204977 -22.154911 178.927090 -5.111080 0.352759 1.508431 -8.569614 -9.994316 -15.730141 1.958201 11.436986 34.072286 2.527942 -7.036403 4.671682 0.210800 -2.956000 -8.156300 4.060591 -1.196032 2.668336 14.813315 1.746960 -9.363131 -1.631387 -10.464704 31.838064 0.696417 -7.404695 -15.564626 -0.357500 -3.841200 10.630200 3.805741 1.983835 7.778510 0.348321 2.744467 -0.413227 -2.743323 1.450036 -1.250183 4.414953 15.623980 -9.009553 0.869913 19.961349 7.416275 -1.563700 9.554500 7.436300 -3.368260 -0.956032 0.482745 -78.681302 -7.643704 66.171999 112.679248 -58.510406 -80.267284 0.779381 0.203962 -21.117850 37.296736 23.972221 16.970700 -7.125000 0.000000 0.000000 8.332400 59.176500 2.898500 4.878750 0.735902 -0.218342 72.904255 -3.198681 55.593426 -129.677483 52.153748 -94.389003 0.129243 0.149456 4.840302 -30.738957 10.380126 -6.028400 7.125000 0.000000 0.000000 -2.696700 -18.171300 -1.723100 
-3.686493 17.666096 38.924809 -178.158095 -22.112930 178.958284 -5.142943 0.340727 1.478211 -8.318481 -10.260703 -15.635033 1.949923 11.425769 34.008732 2.462376 -6.721426 4.609475 0.214700 -2.983300 -8.232300 4.030641 -1.187763 2.628913 15.053502 1.689369 -9.436030 -1.622844 -10.456095 31.804254 0.664550 -7.261917 -15.500482 -0.389400 -4.007200 11.096800 3.215776 2.072885 7.050669 0.690410 2.737619 -0.128735 -1.420131 1.387032 -0.188901 3.414343 15.513658 -9.879799 0.769520 20.029696 7.513516 -1.415100 9.492600 7.545000 -3.303125 -0.931429 0.516812 -79.870124 -8.626083 66.113223 112.439942 -58.549191 -80.064111 0.781406 0.207637 -20.908368 37.541201 23.865420 17.042500 -7.125000 0.000000 0.000000 8.640700 59.111500 2.993300 4.962049 0.687123 -0.216978 72.045450 -2.383106 55.071688 -129.600859 52.230362 -94.335708 0.125968 0.154381 4.729798 -30.920098 10.772129 -6.296600 7.125000 0.000000 0.000000 -2.784400 -17.705600 -1.807800 
-3.637876 17.667419 38.918707 -177.993674 -21.915092 178.843261 -5.112064 0.371856 1.510073 -8.036154 -10.337326 -15.563393 1.945022 11.409911 33.943344 2.364698 -6.279515 4.615655 0.211700 -2.962400 -8.174000 4.067838 -1.184328 2.645082 15.357672 1.867335 -9.325539 -1.614249 -10.441683 31.778602 0.620086 -7.102007 -15.522329 -0.466900 -4.382800 12.156000 3.851951 2.042791 7.650438 0.469365 2.812248 -0.334954 -2.443365 1.467552 -0.991288 4.304406 15.626277 -9.262160 0.658402 20.001163 7.275919 -1.617400 9.534300 7.446200 -3.334646 -0.970134 0.504781 -79.104351 -8.154292 66.194014 112.676675 -58.504125 -80.269774 0.789318 0.200269 -20.928748 37.304363 23.683232 16.794800 -7.125000 0.000000 0.000000 8.362300 58.850800 2.843700 4.903392 0.714934 -0.219333 73.273299 -3.069780 54.764538 -129.814529 52.103396 -94.500034 0.131270 0.141925 4.797577 -31.084306 10.925516 -6.436300 7.125000 0.000000 0.000000 -2.886900 -17.493500 -1.888000 
